<svg width="23" height="24" viewBox="0 0 23 24" fill="none" xmlns="http://www.w3.org/2000/svg">
<path d="M17.8483 12.9767C17.737 12.8652 17.6047 12.7767 17.4592 12.7163C17.3136 12.656 17.1575 12.6249 16.9999 12.6249C16.8423 12.6249 16.6863 12.656 16.5407 12.7163C16.3951 12.7767 16.2629 12.8652 16.1515 12.9767L14.2388 14.8895C13.352 14.6255 11.6972 14.0255 10.6484 12.9767C9.59961 11.9279 8.99962 10.2731 8.73562 9.38635L10.6484 7.47357C10.7599 7.36223 10.8484 7.22998 10.9088 7.08441C10.9692 6.93883 11.0002 6.78278 11.0002 6.62518C11.0002 6.46758 10.9692 6.31153 10.9088 6.16595C10.8484 6.02038 10.7599 5.88813 10.6484 5.77679L5.84845 0.976838C5.73711 0.865304 5.60486 0.776819 5.45929 0.716447C5.31371 0.656075 5.15766 0.625 5.00006 0.625C4.84246 0.625 4.68641 0.656075 4.54083 0.716447C4.39526 0.776819 4.26301 0.865304 4.15167 0.976838L0.897301 4.23121C0.441305 4.6872 0.184508 5.31359 0.194108 5.95319C0.221707 7.66197 0.674103 13.5971 5.35166 18.2747C10.0292 22.9522 15.9644 23.4034 17.6743 23.4322H17.7079C18.3415 23.4322 18.9403 23.1826 19.3939 22.729L22.6483 19.4747C22.7598 19.3633 22.8483 19.2311 22.9087 19.0855C22.969 18.9399 23.0001 18.7839 23.0001 18.6263C23.0001 18.4687 22.969 18.3126 22.9087 18.167C22.8483 18.0215 22.7598 17.8892 22.6483 17.7779L17.8483 12.9767ZM17.6959 21.031C16.1983 21.0058 11.0744 20.6038 7.04844 16.5767C3.00928 12.5375 2.61808 7.39557 2.59408 5.92799L5.00006 3.52201L8.10323 6.62518L6.55164 8.17677C6.4106 8.3177 6.3069 8.49157 6.24991 8.68264C6.19292 8.87372 6.18445 9.07598 6.22525 9.27115C6.25405 9.40915 6.95844 12.6815 8.95042 14.6735C10.9424 16.6655 14.2148 17.3699 14.3528 17.3987C14.5478 17.4406 14.7503 17.4328 14.9415 17.376C15.1328 17.3192 15.3067 17.2151 15.4472 17.0735L16.9999 15.5219L20.1031 18.6251L17.6959 21.031Z" fill="#8EC2F2"/>
</svg>
