<svg width="53" height="53" viewBox="0 0 53 53" fill="none" xmlns="http://www.w3.org/2000/svg">
<g clip-path="url(#clip0_1081_505)">
<path d="M19.2896 12.4766H11.5962C10.8842 12.4766 10.3071 13.0536 10.3071 13.7656C10.3071 14.4776 10.8842 15.0547 11.5962 15.0547H19.2896C20.0013 15.0547 20.5787 14.4776 20.5787 13.7656C20.5787 13.0536 20.0013 12.4766 19.2896 12.4766Z" fill="#295C7A"/>
<path d="M19.2896 17.6333H11.5962C10.8842 17.6333 10.3071 18.2104 10.3071 18.9224C10.3071 19.6344 10.8842 20.2114 11.5962 20.2114H19.2896C20.0013 20.2114 20.5787 19.6344 20.5787 18.9224C20.5787 18.2104 20.0013 17.6333 19.2896 17.6333Z" fill="#295C7A"/>
<path d="M19.2896 22.7896H11.5962C10.8842 22.7896 10.3071 23.3666 10.3071 24.0786C10.3071 24.7906 10.8842 25.3677 11.5962 25.3677H19.2896C20.0013 25.3677 20.5787 24.7906 20.5787 24.0786C20.5787 23.3666 20.0013 22.7896 19.2896 22.7896Z" fill="#295C7A"/>
<path d="M19.2896 27.9463H11.5962C10.8842 27.9463 10.3071 28.5233 10.3071 29.2354C10.3071 29.9474 10.8842 30.5244 11.5962 30.5244H19.2896C20.0013 30.5244 20.5787 29.9474 20.5787 29.2354C20.5787 28.5233 20.0013 27.9463 19.2896 27.9463Z" fill="#295C7A"/>
<path d="M19.2896 33.189H11.5962C10.8842 33.189 10.3071 33.7664 10.3071 34.478C10.3071 35.19 10.8842 35.7671 11.5962 35.7671H19.2896C20.0013 35.7671 20.5787 35.19 20.5787 34.478C20.5787 33.7664 20.0013 33.189 19.2896 33.189Z" fill="#295C7A"/>
<path d="M23.6187 15.0547H31.3121C32.0241 15.0547 32.6011 14.4776 32.6011 13.7656C32.6011 13.0536 32.0241 12.4766 31.3121 12.4766H23.6187C22.907 12.4766 22.3296 13.0536 22.3296 13.7656C22.3296 14.4776 22.907 15.0547 23.6187 15.0547Z" fill="#295C7A"/>
<path d="M23.6187 20.2114H31.3121C32.0241 20.2114 32.6011 19.6344 32.6011 18.9224C32.6011 18.2104 32.0241 17.6333 31.3121 17.6333H23.6187C22.907 17.6333 22.3296 18.2104 22.3296 18.9224C22.3296 19.6344 22.907 20.2114 23.6187 20.2114Z" fill="#295C7A"/>
<path d="M28.6131 24.0786C28.6131 23.3666 28.036 22.7896 27.324 22.7896H23.6187C22.907 22.7896 22.3296 23.3666 22.3296 24.0786C22.3296 24.7906 22.907 25.3677 23.6187 25.3677H27.324C28.036 25.3677 28.6131 24.7906 28.6131 24.0786Z" fill="#295C7A"/>
<path d="M40.8248 33.7333C40.2696 33.2879 39.4586 33.3768 39.0127 33.9321L35.6927 38.0712L33.6373 36.582C33.0609 36.1641 32.2546 36.293 31.837 36.8694C31.4194 37.4461 31.5483 38.2521 32.1246 38.6697L35.1738 40.8789C35.402 41.0441 35.6666 41.1243 35.9294 41.1243C36.3077 41.1243 36.6817 40.9581 36.9355 40.6416L41.0239 35.5454C41.4694 34.9902 41.3804 34.1788 40.8248 33.7333Z" fill="#295C7A"/>
<path d="M44.0831 29.7762C42.404 28.0675 40.2465 26.9906 37.9087 26.6734V9.1915C37.9087 6.32904 35.5797 4 32.7172 4H10.1918C7.32904 4 5 6.32904 5 9.1915V39.0524C5 41.9152 7.32904 44.2443 10.1915 44.2443H28.3085C30.3472 46.6391 33.2785 48 36.4498 48C42.3529 48 47.1554 43.1942 47.1554 37.287C47.1554 34.4591 46.0644 31.7917 44.0831 29.7762ZM7.57812 39.0524V9.1915C7.57812 7.7507 8.7507 6.57812 10.1918 6.57812H32.7172C34.1583 6.57812 35.3306 7.7507 35.3306 9.1915V26.6324C29.9514 27.1941 25.7442 31.7578 25.7442 37.287C25.7442 38.8195 26.0638 40.3012 26.6767 41.6658H10.1918C8.7507 41.6658 7.57812 40.4936 7.57812 39.0524ZM36.4498 45.4219C33.8753 45.4219 31.5087 44.2399 29.9561 42.1794C28.8873 40.7604 28.322 39.0689 28.322 37.287C28.322 32.8015 31.9683 29.1522 36.4498 29.1522C36.4921 29.1522 36.5347 29.1528 36.577 29.1535L36.5968 29.1538C38.7362 29.1918 40.7419 30.0545 42.2445 31.5833C43.7487 33.1137 44.5772 35.1396 44.5772 37.287C44.5772 41.7726 40.9313 45.4219 36.4498 45.4219Z" fill="#295C7A"/>
</g>
<defs>
<clipPath id="clip0_1081_505">
<rect width="42.1953" height="44" fill="white" transform="translate(5 4)"/>
</clipPath>
</defs>
</svg>
